<svg version="1.2" baseProfile="tiny-ps" xmlns="http://www.w3.org/2000/svg" viewBox="0 0 125 42" width="125" height="42">
	<title>Final-ai</title>
	<style>
		tspan { white-space:pre }
		.shp0 { fill: #ae2c98 } 
		.shp1 { fill: #58164a } 
	</style>
	<path id="Se vices " fill-rule="evenodd" class="shp0" d="M2.71 38.05C2.77 39.45 3.66 40.35 5.03 40.35C6.21 40.35 7.28 39.45 7.28 38.14C7.28 36.43 5.55 35.99 4.79 35.76C3.78 35.46 1.89 35.04 1.89 32.83C1.89 31.1 3.27 29.84 5.03 29.84C6.86 29.84 8.13 31.23 8.13 32.86L7.01 32.86C7.01 31.73 6.09 30.84 5.03 30.84C3.75 30.84 3.01 31.82 3.01 32.78C3.01 34.14 4.2 34.45 5.67 34.88C8.39 35.6 8.4 37.72 8.4 38.08L8.4 38.1C8.4 39.81 7.01 41.36 5.03 41.36C3.58 41.36 1.64 40.5 1.59 38.05L2.71 38.05ZM19.62 37.43C19.7 39.04 21.21 40.41 22.82 40.41C24.33 40.38 25.4 39.49 25.78 38.47L26.9 38.47C26.33 40.11 24.74 41.36 22.84 41.36C20.53 41.36 18.53 39.49 18.53 37.06C18.53 34.73 20.42 32.77 22.82 32.72C24.63 32.74 25.92 33.81 26.51 34.83C26.99 35.61 27.16 36.41 27.16 37.13C27.16 37.24 27.14 37.33 27.14 37.43L19.62 37.43ZM26.07 36.49C25.74 34.54 24.15 33.67 22.84 33.67C21.54 33.67 19.92 34.54 19.62 36.49L26.07 36.49ZM50.43 32.93L51.56 32.93L54.47 39.86L57.43 32.93L58.57 32.93L55.08 41.16L53.91 41.16L50.43 32.93ZM68.85 32.93L69.91 32.93L69.91 41.16L68.85 41.16L68.85 32.93ZM68.85 30.03L69.91 30.03L69.91 31.93L68.85 31.93L68.85 30.03ZM89.23 38.74C88.71 39.77 87.6 41.36 85.13 41.36C82.55 41.36 80.69 39.36 80.69 37.06C80.69 34.68 82.67 32.72 85.13 32.72C86.58 32.72 88.43 33.45 89.23 35.42L88.07 35.42C87.41 34.17 86.2 33.67 85.16 33.67C83.54 33.67 81.74 34.88 81.74 37.03C81.74 38.88 83.18 40.41 85.16 40.41C86.88 40.41 87.74 39.37 88.07 38.74L89.23 38.74ZM100.68 37.43C100.76 39.04 102.27 40.41 103.88 40.41C105.39 40.38 106.46 39.49 106.84 38.47L107.96 38.47C107.39 40.11 105.8 41.36 103.9 41.36C101.59 41.36 99.59 39.49 99.59 37.06C99.59 34.73 101.48 32.77 103.88 32.72C105.69 32.74 106.98 33.81 107.57 34.83C108.05 35.61 108.22 36.41 108.22 37.13C108.22 37.24 108.2 37.33 108.2 37.43L100.68 37.43ZM107.13 36.49C106.8 34.54 105.21 33.67 103.9 33.67C102.6 33.67 100.98 34.54 100.68 36.49L107.13 36.49ZM119.44 38.73C119.47 40.29 120.54 40.41 120.92 40.41C121.91 40.41 122.46 39.83 122.46 38.94C122.46 37.81 121.43 37.55 120.81 37.3C119.96 37.01 118.62 36.56 118.62 35.01C118.62 33.85 119.45 32.72 120.98 32.72C122.2 32.72 123.23 33.66 123.23 34.94L123.23 34.97L122.17 34.97C122.09 33.96 121.4 33.67 120.93 33.67C120.09 33.67 119.68 34.35 119.68 34.91C119.68 35.78 120.55 36.08 121.16 36.27C122.12 36.59 123.51 37.12 123.51 38.82L123.51 38.85C123.51 40.25 122.65 41.36 120.92 41.36C119.78 41.36 118.38 40.61 118.38 38.82L118.38 38.73L119.44 38.73Z" />
	<path id="R" class="shp0" d="M36.28 32.81L36.28 41.37L37.33 41.37L37.33 33.64L39.85 33.64L39.85 32.81L36.28 32.81Z" />
	<g id="Layer 1">
		<g id="&lt;Group&gt;">
			<path id="JP    Retail " fill="#43454b" aria-label="JP    Retail"  d="M0.56 23L4.39 23C10.17 23.21 12.31 21.48 12.15 16.73L12.15 8.72L8.55 8.72L8.55 16.73C8.55 18.68 8.32 19.43 7.64 19.94C7.08 20.35 6.27 20.45 4.01 20.45L0.56 20.45ZM19.03 18.01L24.81 18.01C26.74 18.01 27.65 17.8 28.64 17.09C29.81 16.26 30.52 14.87 30.52 13.37C30.52 12.11 29.99 10.93 29 10.03C27.88 8.98 26.84 8.72 23.87 8.72L15.43 8.72L15.43 23L19.03 23ZM19.03 15.47L19.03 11.27L24 11.27C24.58 11.27 25.04 11.31 25.32 11.4C26.11 11.63 26.56 12.32 26.56 13.26C26.56 14.05 26.28 14.74 25.83 15.06C25.45 15.36 24.89 15.47 23.92 15.47ZM61.8 17.59L64.69 17.59C67.89 17.59 68.95 18.38 69.28 20.97C69.31 21.24 69.38 21.84 69.43 22.23C69.49 22.55 69.51 22.68 69.64 23L73.67 23C73.44 22.46 73.39 22.17 73.27 20.84C73.14 18.61 72.17 17.33 70.2 16.88C72.38 16.24 73.42 14.89 73.42 12.71C73.42 11.4 72.73 10.24 71.54 9.56C70.53 8.96 69.03 8.72 66.47 8.72L58.2 8.72L58.2 23L61.8 23ZM61.8 15.04L61.8 11.27L66.85 11.27C67.46 11.27 67.91 11.31 68.19 11.38C68.98 11.61 69.43 12.21 69.43 13.07C69.43 14.46 68.7 15.04 66.85 15.04ZM86.2 16.66L79.05 16.66C79.2 15.23 79.84 14.8 81.69 14.8L86.2 14.8L86.2 12.58L81.43 12.58C79.76 12.58 78.64 12.79 77.7 13.33C76.23 14.16 75.29 15.83 75.29 17.65C75.29 19.58 76.06 21.07 77.53 22.02C78.64 22.74 79.73 23 81.69 23L86.2 23L86.2 20.77L82.04 20.77C80.98 20.77 80.44 20.69 79.96 20.41C79.35 20.07 79.13 19.68 79.05 18.89L86.2 18.89ZM89.98 12.58L87.83 12.58L87.83 14.8L89.98 14.8L89.98 19.08C89.98 20.77 90.24 21.54 91.07 22.21C91.73 22.76 92.65 23 94.07 23L96.53 23L96.53 20.77L95.18 20.77C94.47 20.77 93.94 20.6 93.66 20.26C93.43 19.98 93.38 19.66 93.38 18.59L93.38 14.8L96.53 14.8L96.53 12.58L93.38 12.58L93.38 8.72L89.98 8.72ZM103.2 16.66C101.96 16.66 100.97 16.75 100.41 16.9C99.06 17.26 98.15 18.46 98.15 19.92C98.15 20.97 98.66 21.89 99.57 22.44C100.33 22.91 100.97 23 103.61 23L110.76 23L110.76 17.14C110.76 16.02 110.71 15.62 110.48 15.02C110.07 13.95 109.19 13.13 108.1 12.83C107.28 12.62 106.83 12.58 104.77 12.58L99.04 12.58L99.04 14.8L104.77 14.8C106.83 14.8 107.36 15.19 107.36 16.66ZM107.36 18.89L107.36 20.77L103.43 20.77C102.11 20.77 101.6 20.52 101.6 19.85C101.6 19.43 101.88 19.06 102.34 18.95C102.62 18.89 102.62 18.89 103.43 18.89ZM113.93 12.58L113.93 23L117.33 23L117.33 12.58ZM113.93 11.51L117.33 11.51L117.33 8.72L113.93 8.72ZM124.08 23L124.08 8.72L120.68 8.72L120.68 23Z" />
		</g>
		<g id="&lt;Group&gt;">
			<g id="&lt;Group&gt;">
				<path id="&lt;Path&gt;" class="shp1" d="M43.18 16.45C44.99 17.3 45.75 19.63 44.87 21.65C44 23.66 41.82 24.6 40.01 23.75C34.58 21.18 32.31 14.2 34.94 8.15C37.55 2.16 43.97 -0.67 49.36 1.76C45.78 0.19 41.53 2.08 39.81 6.05C38.05 10.08 39.57 14.73 43.18 16.45Z" />
			</g>
			<g id="&lt;Group&gt;">
				<path id="&lt;Path&gt;" class="shp0" d="M41.03 17.85C42.96 18.76 43.74 21.32 42.76 23.57C41.79 25.82 39.43 26.9 37.5 25.98C31.7 23.24 29.38 15.56 32.3 8.82C35.2 2.15 43.6 -0.83 49.36 1.76C45.53 0.09 39.49 1.98 37.57 6.41C35.62 10.9 37.17 16.02 41.03 17.85Z" />
			</g>
		</g>
		<g id="&lt;Group&gt;">
			<g id="&lt;Group&gt;">
				<path id="&lt;Path&gt;" class="shp1" d="M44.77 13.08C42.96 12.23 42.18 9.95 43.03 8C43.88 6.05 46.03 5.16 47.84 6.01C53.27 8.58 55.6 15.41 53.06 21.26C50.54 27.05 44.19 29.72 38.8 27.29C42.38 28.87 46.58 27.09 48.25 23.24C49.94 19.34 48.39 14.79 44.77 13.08Z" />
			</g>
			<g id="&lt;Group&gt;">
				<path id="&lt;Path&gt;" class="shp0" d="M46.86 11.86C44.93 10.95 44.13 8.45 45.07 6.27C46.02 4.1 48.35 3.08 50.28 3.99C56.08 6.73 58.48 14.24 55.65 20.76C52.84 27.21 45.1 30.09 39.34 27.5C43.17 29.18 48.58 27.32 50.44 23.04C52.33 18.7 50.73 13.69 46.86 11.86Z" />
			</g>
		</g>
	</g>
</svg>