<?xml version="1.0" encoding="utf-8"?>
<!-- Generator: Adobe Illustrator 22.1.0, SVG Export Plug-In . SVG Version: 6.00 Build 0)  -->
<svg version="1.1" id="Laag_1" xmlns="http://www.w3.org/2000/svg" xmlns:xlink="http://www.w3.org/1999/xlink" x="0px" y="0px"
	 width="595.3px" height="227.4px" viewBox="0 0 595.3 227.4" style="enable-background:new 0 0 595.3 227.4;" xml:space="preserve"
	>
<style type="text/css">
	.st0{fill:#002E4E;}
	.st1{fill:none;stroke:#EE4036;stroke-width:7.7305;stroke-miterlimit:10;}
	.st2{fill:none;stroke:#F48120;stroke-width:7.7305;stroke-miterlimit:10;}
	.st3{fill:none;stroke:#4E9B46;stroke-width:7.7305;stroke-miterlimit:10;}
</style>
<g>
	<g>
		<path class="st0" d="M34.8,179.6L0,103h17.5l26,58.7L69,103h17.5l-33.9,76.6H34.8z"/>
		<path class="st0" d="M99,179.6V103h16v76.6H99z"/>
		<path class="st0" d="M153.4,117.8v16.4h29.6v13.9h-29.6v16.7H195v14.8h-58V103h55.5v14.8L153.4,117.8L153.4,117.8z"/>
		<path class="st0" d="M245.8,159.4c-1.8,0.1-3.4,0.2-5,0.2c-4.2,0-10.5-0.1-11.5-0.1v20.1h-16.4V103c9.3-0.1,17.8-0.3,26.5-0.3
			c22.1,0.1,34.8,12,34.8,28.8c0,10.8-5.1,18.2-12.4,22.6l12.9,25.5H256L245.8,159.4z M229.3,144.9c4,0.1,7.8,0.1,11.6-0.1
			c11.6-0.8,16.8-6.2,16.8-13.8c0-8.5-7.5-13.1-17.5-13.6c-3.9-0.2-7.3-0.2-10.9-0.2L229.3,144.9L229.3,144.9z"/>
		<path class="st0" d="M293.7,103c5.4-0.1,16-0.2,20.7-0.2c26.7,0.1,48.7,10.8,48.7,37.7c0,25.6-19.8,39.4-49.1,39.4
			c-3.5,0-12.9,0-20.2-0.3L293.7,103L293.7,103z M309.9,165.1c2.5,0.1,5,0.1,7.8,0c15-0.7,29-7.7,29-24.1
			c0-17.8-16.7-23.3-28.7-23.3c-0.1,0-3.5-0.2-8.1,0V165.1z"/>
		<path class="st0" d="M397.3,117.8v16.4h29.6v13.9h-29.6v16.7h41.6v14.8h-58V103h55.5v14.8L397.3,117.8L397.3,117.8z"/>
		<path class="st0" d="M489.7,159.4c-1.8,0.1-3.4,0.2-5,0.2c-4.2,0-10.5-0.1-11.5-0.1v20.1h-16.4V103c9.3-0.1,17.8-0.3,26.5-0.3
			c22.1,0.1,34.8,12,34.8,28.8c0,10.8-5.1,18.2-12.4,22.6l12.9,25.5h-18.7L489.7,159.4z M473.1,144.9c4,0.1,7.8,0.1,11.6-0.1
			c11.6-0.8,16.8-6.2,16.8-13.8c0-8.5-7.5-13.1-17.5-13.6c-3.9-0.2-7.3-0.2-10.9-0.2L473.1,144.9L473.1,144.9z"/>
		<path class="st0" d="M589.4,107.3l-4.7,14.2c-6.1-3.1-13-5-19.6-5c-7.8,0-13.7,2.8-13.5,7.9c0.2,5.7,8.8,6.6,19.5,9.4
			c14.2,3.7,24,8.6,24.2,22.6c0.2,17-14.2,24.6-31,24.8c-14,0.2-25.4-4.7-31.4-8.2l5.9-13.7c5.3,3,14,7.1,24.2,7
			c9.6-0.1,15.3-3.9,15.4-9c0.2-7.1-10.4-7.5-20.9-10.3c-12.3-3.2-22.5-8.6-22.8-22c-0.2-16.5,15.1-23.4,30.3-23.4
			C574.8,101.7,583.2,104.5,589.4,107.3z"/>
	</g>
</g>
<g>
	<g>
		<g>
			<path class="st0" d="M87.5,226.8l-8.2-18h3.2l6.6,14.7l6.4-14.7h3.2l-8,18H87.5z"/>
			<path class="st0" d="M103.4,223l-1.6,3.8h-3.3l8-18h2.9l8,18h-3.3l-1.6-3.8H103.4z M107.9,212l-3.4,8.3h6.9L107.9,212z"/>
			<path class="st0" d="M134,209.9l-0.9,2.6c-1.4-0.7-3.1-1.3-4.9-1.3c-2.2,0-3.8,0.9-3.8,2.4c0.1,1.7,2.3,2,4.9,2.6
				c3.5,0.9,6,2,6,5.3c0.1,3.8-3.2,5.6-7.1,5.7c-3.3,0.1-6-1.2-7.5-2l1.1-2.5c1.4,0.8,3.6,1.8,6.2,1.8c2.6,0,4.2-1.1,4.2-2.7
				c0-2-2.5-2.3-5.4-3c-3-0.7-5.5-1.9-5.6-5c-0.1-3.7,3.4-5.3,6.9-5.3C130.5,208.5,132.6,209.2,134,209.9z"/>
			<path class="st0" d="M147.3,211.5v15.3h-3v-15.3H138v-2.7h15.6v2.7H147.3z"/>
			<path class="st0" d="M171.6,209.7l-1,2.7c-1.2-0.6-2.8-1.3-4.8-1.2c-3.8,0.1-7,2.8-7,6.8c0,3.8,3,6.7,7.1,6.7
				c1.9,0,3.3-0.6,4.3-1.2v-3.6h-4.9v-2.7h7.8v7.9c-1.4,1-3.9,2.3-7.2,2.3c-5.8,0-10.2-3.9-10.2-9.4c0-5.3,4.2-9.4,9.9-9.5
				C168.3,208.3,170.4,209.1,171.6,209.7z"/>
			<path class="st0" d="M196.5,217.9c0,5.4-3.8,9.5-9.5,9.5c-5.6,0-9.6-3.9-9.6-9.5c0-5.7,4.1-9.4,9.6-9.4
				C192.4,208.5,196.5,212.3,196.5,217.9z M180.4,217.9c0,3.9,2.6,6.7,6.5,6.7c4,0,6.5-2.9,6.5-6.7c0-3.9-2.6-6.7-6.5-6.7
				C183.1,211.2,180.4,213.9,180.4,217.9z"/>
			<path class="st0" d="M204.6,211.5v4.9h7.3v2.6h-7.3v5.1h10.2v2.7h-13.2v-18h12.6v2.7L204.6,211.5L204.6,211.5z"/>
			<path class="st0" d="M219.5,208.8c1,0,3.5-0.1,4.4-0.1c6.3,0,11.5,2.5,11.5,8.9c0,6-4.5,9.2-11.5,9.2c-0.7,0-3.1,0-4.4-0.1V208.8
				z M222.5,224.1c0.5,0,1.5,0,2.1,0c4.4-0.1,7.8-2,7.8-6.4c0-4.8-4.2-6.3-7.8-6.3c-0.2,0-1.2,0-2,0V224.1z"/>
			<path class="st0" d="M249.7,219v-2.4h8.6v2.4H249.7z"/>
			<path class="st0" d="M276.3,223l-1.6,3.8h-3.4l8-18h2.9l8,18H287l-1.6-3.8H276.3z M280.9,212l-3.4,8.3h6.9L280.9,212z"/>
			<path class="st0" d="M294.4,208.8c1,0,3.5-0.1,4.4-0.1c6.3,0,11.5,2.5,11.5,8.9c0,6-4.5,9.2-11.5,9.2c-0.7,0-3.1,0-4.4-0.1V208.8
				z M297.4,224.1c0.5,0,1.5,0,2.1,0c4.4-0.1,7.8-2,7.8-6.4c0-4.8-4.2-6.3-7.8-6.3c-0.2,0-1.2,0-2,0V224.1z"/>
			<path class="st0" d="M320.2,226.8l-8.2-18h3.2l6.6,14.7l6.4-14.7h3.2l-8,18H320.2z"/>
			<path class="st0" d="M335.3,226.8v-18h2.9v18H335.3z"/>
			<path class="st0" d="M347.3,211.5v4.9h7.3v2.6h-7.3v5.1h10.2v2.7h-13.2v-18h12.6v2.7L347.3,211.5L347.3,211.5z"/>
			<path class="st0" d="M374.8,209.9l-0.9,2.6c-1.4-0.7-3.1-1.3-4.9-1.3c-2.2,0-3.8,0.9-3.8,2.4c0.1,1.7,2.3,2,4.9,2.6
				c3.5,0.9,6,2,6,5.3c0.1,3.8-3.2,5.6-7.1,5.7c-3.3,0.1-6-1.2-7.5-2l1.1-2.5c1.4,0.8,3.6,1.8,6.2,1.8c2.6,0,4.2-1.1,4.2-2.7
				c0-2-2.5-2.3-5.4-3c-3-0.7-5.5-1.9-5.6-5c-0.1-3.7,3.4-5.3,6.9-5.3C371.4,208.5,373.4,209.2,374.8,209.9z"/>
			<path class="st0" d="M390.4,219v-2.4h8.6v2.4H390.4z"/>
			<path class="st0" d="M427.3,213.2c0,2-1.1,3.5-3,3.8c2.6,0.4,4.5,2,4.5,4.8c0,3.1-2.4,5.1-8.1,5.1c-1.1,0-5.7-0.1-6.2-0.1v-18
				c3.5-0.1,4.9-0.1,6.1-0.1C425.6,208.8,427.3,210.8,427.3,213.2z M417.5,211.3v4.6c1.1,0,2.9,0,3.7,0c2.3-0.1,3.2-1.2,3.1-2.4
				c-0.1-1.4-1.4-2.1-3-2.2C420.6,211.3,418.5,211.3,417.5,211.3z M417.5,218.6v5.7c1,0,3,0,3.9,0c2.8-0.1,4.3-1.2,4.3-2.9
				c0-1.6-1.4-2.8-4.8-2.9C420,218.6,418.5,218.6,417.5,218.6z"/>
			<path class="st0" d="M436.6,211.5v4.9h7.3v2.6h-7.3v5.1h10.2v2.7h-13.2v-18h12.6v2.7L436.6,211.5L436.6,211.5z"/>
			<path class="st0" d="M464.4,226.8v-7.5h-9.9v7.5h-3v-18h3v7.8h9.9v-7.8h3v18H464.4z"/>
			<path class="st0" d="M476.7,211.5v4.9h7.3v2.6h-7.3v5.1h10.2v2.7h-13.2v-18h12.6v2.7L476.7,211.5L476.7,211.5z"/>
			<path class="st0" d="M494.6,211.5v4.9h7.3v2.6h-7.3v5.1h10.2v2.7h-13.2v-18h12.6v2.7L494.6,211.5L494.6,211.5z"/>
			<path class="st0" d="M517.3,221.8c-0.5,0.1-1.1,0.1-1.6,0.1l-3.3,0v4.9h-3v-18c2.2,0,4-0.1,6-0.1c5,0,8,2.7,8,6.6
				c0,2.7-1.4,4.5-3.2,5.5l3.3,6h-3.5L517.3,221.8z M512.4,219.2c1.2,0,2.2,0,3.3,0c2.9-0.2,4.7-1.6,4.7-3.9c0-2.4-2.1-3.8-4.9-3.9
				c-1.1-0.1-2-0.1-3.1-0.1V219.2z"/>
		</g>
	</g>
</g>
<g>
	<polyline class="st1" points="228.3,62.6 282,62.6 255.9,11.9 	"/>
	<polyline class="st2" points="276,1.7 302.9,55.6 329.9,1.7 	"/>
	<polyline class="st3" points="377.6,62.6 323.9,62.6 350,11.9 	"/>
</g>
</svg>
