<svg id="Layer_1" data-name="Layer 1" xmlns="http://www.w3.org/2000/svg" viewBox="0 0 332.646 125.46">
  <defs>
    <style>
      .cls-1 {
        fill: #2e2e2d;
      }

      .cls-2 {
        fill: #9c006e;
      }

      .cls-3 {
        fill: #4e0e39;
      }
    </style>
  </defs>
  <title>Final</title>
  <g>
    <path class="cls-1" d="M141.543,372.119v-.926h15.51v.926h-1.308a3.958,3.958,0,0,0-3.23,1.226q-.641.8-.641,3.851v16.58a17.911,17.911,0,0,1-.895,6.2,9.653,9.653,0,0,1-3.083,4.14,8.164,8.164,0,0,1-5.286,1.763,6.123,6.123,0,0,1-3.951-1.163,3.377,3.377,0,0,1-1.441-2.663,2.417,2.417,0,0,1,.667-1.851,3.015,3.015,0,0,1,2.056-.775,2.445,2.445,0,0,1,1.535.525,8.37,8.37,0,0,1,1.722,2.8q.614,1.351,1.575,1.351a1.737,1.737,0,0,0,1.348-.825,5.027,5.027,0,0,0,.627-2.926V377.195a10.559,10.559,0,0,0-.347-3.4,2.31,2.31,0,0,0-1.121-1.075,5.167,5.167,0,0,0-2.429-.6Z" transform="translate(-136.098 -342.813)"/>
    <path class="cls-1" d="M168.585,389.223V399.1q0,3.2.748,3.977a3.977,3.977,0,0,0,3.07,1.1h1.388v.925h-15.51v-.925h1.361a3.737,3.737,0,0,0,3.284-1.4q.533-.775.534-3.677V377.195q0-3.2-.721-3.976a4.067,4.067,0,0,0-3.1-1.1h-1.361v-.926h13.268a24.993,24.993,0,0,1,7.661.938,10.557,10.557,0,0,1,4.725,3.163,7.811,7.811,0,0,1,1.922,5.276,8.615,8.615,0,0,1-2.923,6.752q-2.923,2.6-8.262,2.6a24.748,24.748,0,0,1-2.83-.175Q170.321,389.574,168.585,389.223Zm0-1.425q1.415.25,2.509.375a16.93,16.93,0,0,0,1.869.125,6.548,6.548,0,0,0,4.792-2.014,7.05,7.05,0,0,0,2.016-5.214,8.883,8.883,0,0,0-.961-4.088,6.382,6.382,0,0,0-2.723-2.826,8.392,8.392,0,0,0-4-.937,16.817,16.817,0,0,0-3.5.475Z" transform="translate(-136.098 -342.813)"/>
    <path class="cls-1" d="M279.343,405.1h-9.664l-12.253-15.854q-1.362.05-2.216.05-.347,0-.747-.013c-.267-.008-.543-.021-.828-.037V399.1q0,3.2.748,3.977a3.939,3.939,0,0,0,3.043,1.1h1.415v.925h-15.51v-.925h1.361a3.736,3.736,0,0,0,3.283-1.4q.561-.775.561-3.677V377.195q0-3.2-.747-3.976a4.068,4.068,0,0,0-3.1-1.1h-1.361v-.926h13.187a33.374,33.374,0,0,1,8.5.788,9.791,9.791,0,0,1,4.645,2.9,7.26,7.26,0,0,1,1.909,5.038,7.634,7.634,0,0,1-2.176,5.427,12.567,12.567,0,0,1-6.74,3.251l7.475,9.728a17.932,17.932,0,0,0,4.4,4.452,11.634,11.634,0,0,0,4.805,1.4Zm-25.708-17.43q.507,0,.881.013t.614.012q5.179,0,7.809-2.1a6.558,6.558,0,0,0,2.629-5.352,6.757,6.757,0,0,0-2.122-5.164,7.888,7.888,0,0,0-5.62-1.987,25.1,25.1,0,0,0-4.191.475Z" transform="translate(-136.098 -342.813)"/>
    <path class="cls-1" d="M284.681,390.824q-.026,5.1,2.643,8a8.268,8.268,0,0,0,6.273,2.9,7.12,7.12,0,0,0,4.178-1.238,9.129,9.129,0,0,0,2.977-4.238l.828.5a11.647,11.647,0,0,1-3.257,6.239,8.966,8.966,0,0,1-6.754,2.813,10.16,10.16,0,0,1-7.542-3.214,11.834,11.834,0,0,1-3.137-8.64q0-5.875,3.217-9.165a10.827,10.827,0,0,1,8.075-3.288,9.35,9.35,0,0,1,6.754,2.538,8.977,8.977,0,0,1,2.644,6.789Zm0-1.45H296a9.259,9.259,0,0,0-.561-3.1,5.072,5.072,0,0,0-1.989-2.2,5.258,5.258,0,0,0-2.763-.8,5.689,5.689,0,0,0-3.964,1.612A6.8,6.8,0,0,0,284.681,389.374Z" transform="translate(-136.098 -342.813)"/>
    <path class="cls-1" d="M311.938,374.669V382.2h5.713v1.75h-5.713V398.8a4.736,4.736,0,0,0,.681,3,2.222,2.222,0,0,0,1.749.775,3.2,3.2,0,0,0,1.708-.513,3.348,3.348,0,0,0,1.281-1.514H318.4a7.85,7.85,0,0,1-2.643,3.689,5.938,5.938,0,0,1-3.524,1.237,4.984,4.984,0,0,1-2.4-.638,3.943,3.943,0,0,1-1.734-1.825,9.031,9.031,0,0,1-.561-3.664v-15.4h-3.871v-.825a10.2,10.2,0,0,0,3-1.863,15.09,15.09,0,0,0,2.736-3.113,27.191,27.191,0,0,0,1.708-3.476Z" transform="translate(-136.098 -342.813)"/>
    <path class="cls-1" d="M333.881,401.8a40.408,40.408,0,0,1-4.725,3.15,7.633,7.633,0,0,1-3.07.626,5.686,5.686,0,0,1-4.178-1.626,5.749,5.749,0,0,1-1.643-4.276,5.187,5.187,0,0,1,.8-2.9,10.388,10.388,0,0,1,3.8-3.2,61.391,61.391,0,0,1,9.01-3.651v-.9q0-3.425-1.162-4.7a4.337,4.337,0,0,0-3.377-1.275,3.954,3.954,0,0,0-2.669.851,2.5,2.5,0,0,0-1.015,1.95l.054,1.451a2.4,2.4,0,0,1-.628,1.775,2.221,2.221,0,0,1-1.641.625,2.144,2.144,0,0,1-1.615-.65,2.451,2.451,0,0,1-.627-1.775,5.039,5.039,0,0,1,2.349-3.951,10.627,10.627,0,0,1,6.594-1.8,12.093,12.093,0,0,1,5.339,1.025,4.839,4.839,0,0,1,2.322,2.426,12.855,12.855,0,0,1,.48,4.4v7.777a33.364,33.364,0,0,0,.134,4.014,1.628,1.628,0,0,0,.44.987,1.085,1.085,0,0,0,.707.25,1.531,1.531,0,0,0,.748-.175,16.486,16.486,0,0,0,2.162-1.825v1.4q-2.991,3.751-5.713,3.751a2.678,2.678,0,0,1-2.082-.851A4.374,4.374,0,0,1,333.881,401.8Zm0-1.626v-8.728a54.814,54.814,0,0,0-5.205,2.126,8.883,8.883,0,0,0-3.018,2.3,4.256,4.256,0,0,0-.907,2.626,4.126,4.126,0,0,0,1.147,2.988,3.575,3.575,0,0,0,2.643,1.188Q330.571,402.677,333.881,400.176Z" transform="translate(-136.098 -342.813)"/>
    <path class="cls-1" d="M352.727,381.521v18.405a7.918,7.918,0,0,0,.334,2.863,2.245,2.245,0,0,0,.988,1.063,5.6,5.6,0,0,0,2.389.35v.9H344.559v-.9a5.87,5.87,0,0,0,2.4-.325,2.275,2.275,0,0,0,.975-1.075,7.608,7.608,0,0,0,.36-2.876V391.1a29.263,29.263,0,0,0-.24-4.826,1.93,1.93,0,0,0-.587-1.113,1.742,1.742,0,0,0-1.1-.312,5.648,5.648,0,0,0-1.814.375l-.374-.9,7.368-2.8Zm-2.215-11.979a2.69,2.69,0,0,1,1.908.738,2.359,2.359,0,0,1,.787,1.788,2.4,2.4,0,0,1-.787,1.8,2.663,2.663,0,0,1-1.908.751,2.707,2.707,0,0,1-1.922-.751,2.424,2.424,0,0,1-.014-3.588A2.722,2.722,0,0,1,350.512,369.542Z" transform="translate(-136.098 -342.813)"/>
    <path class="cls-1" d="M367.891,369.542v30.384a7.812,7.812,0,0,0,.334,2.852,2.267,2.267,0,0,0,1.027,1.063,6.262,6.262,0,0,0,2.59.362v.9H359.855v-.9a5.487,5.487,0,0,0,2.295-.325,2.2,2.2,0,0,0,.961-1.075,7.851,7.851,0,0,0,.348-2.876V379.121a33.682,33.682,0,0,0-.187-4.764,2.036,2.036,0,0,0-.6-1.213,1.657,1.657,0,0,0-1.055-.325,5.264,5.264,0,0,0-1.762.4l-.454-.876,7.288-2.8Z" transform="translate(-136.098 -342.813)"/>
  </g>
  <g>
    <path class="cls-2" d="M155.682,426.949v9.619h-.772a11.838,11.838,0,0,0-1.345-4.41,6.947,6.947,0,0,0-2.763-2.6,7.75,7.75,0,0,0-3.713-.965,5.1,5.1,0,0,0-3.587,1.3,3.935,3.935,0,0,0-1.418,2.963,3.478,3.478,0,0,0,.9,2.318q1.293,1.538,6.153,4.1a42.836,42.836,0,0,1,5.412,3.209,7.868,7.868,0,0,1,2.231,2.635,6.852,6.852,0,0,1,.782,3.18,7.15,7.15,0,0,1-2.492,5.445,9.121,9.121,0,0,1-6.414,2.285,13.8,13.8,0,0,1-2.315-.184,24.113,24.113,0,0,1-2.68-.748,12.134,12.134,0,0,0-2.576-.646,1.1,1.1,0,0,0-.824.307,2.418,2.418,0,0,0-.449,1.271h-.771v-9.535h.771a13.307,13.307,0,0,0,1.46,4.48,6.965,6.965,0,0,0,2.805,2.471,8.818,8.818,0,0,0,4.14.984,5.952,5.952,0,0,0,4.119-1.354,4.164,4.164,0,0,0,1.512-3.2,4.279,4.279,0,0,0-.574-2.07,6.214,6.214,0,0,0-1.783-1.949,51.127,51.127,0,0,0-4.442-2.613,43.318,43.318,0,0,1-5.162-3.189,8.637,8.637,0,0,1-2.325-2.625,6.421,6.421,0,0,1-.793-3.158,6.8,6.8,0,0,1,2.336-5.158,8.409,8.409,0,0,1,5.944-2.164,12.1,12.1,0,0,1,4.776,1.088,4.963,4.963,0,0,0,1.647.512,1.257,1.257,0,0,0,.886-.316,2.528,2.528,0,0,0,.553-1.283Z" transform="translate(-136.098 -342.813)"/>
    <path class="cls-2" d="M187.893,443.684a9.541,9.541,0,0,0,2.064,6.563,6.337,6.337,0,0,0,4.9,2.379,5.382,5.382,0,0,0,3.264-1.014,7.5,7.5,0,0,0,2.326-3.477l.646.41a9.719,9.719,0,0,1-2.544,5.117,6.85,6.85,0,0,1-5.277,2.307,7.765,7.765,0,0,1-5.892-2.635,9.993,9.993,0,0,1-2.451-7.086q0-4.819,2.513-7.516a8.258,8.258,0,0,1,6.309-2.7,7.112,7.112,0,0,1,5.277,2.082,7.554,7.554,0,0,1,2.065,5.566Zm0-1.189h8.843a7.936,7.936,0,0,0-.438-2.543,4.091,4.091,0,0,0-1.554-1.8,3.964,3.964,0,0,0-2.159-.656,4.336,4.336,0,0,0-3.1,1.324A5.688,5.688,0,0,0,187.893,442.494Z" transform="translate(-136.098 -342.813)"/>
    <path class="cls-2" d="M232.722,436.055v4.225q2.4-4.225,4.922-4.225a2.708,2.708,0,0,1,1.9.688,2.1,2.1,0,0,1,.751,1.59,1.862,1.862,0,0,1-.542,1.354,1.747,1.747,0,0,1-1.293.553,2.77,2.77,0,0,1-1.637-.707,2.728,2.728,0,0,0-1.346-.707,1.249,1.249,0,0,0-.813.41,9.857,9.857,0,0,0-1.94,2.768v9a5.478,5.478,0,0,0,.4,2.357,2.144,2.144,0,0,0,.959.924,4.274,4.274,0,0,0,1.981.369v.738h-9.782v-.738a4.121,4.121,0,0,0,2.169-.451,1.756,1.756,0,0,0,.73-1.047,10.389,10.389,0,0,0,.1-1.988v-7.281a29.79,29.79,0,0,0-.135-3.906,1.53,1.53,0,0,0-.5-.912,1.424,1.424,0,0,0-.908-.287,4.182,4.182,0,0,0-1.46.307l-.208-.738,5.777-2.3Z" transform="translate(-136.098 -342.813)"/>
    <path class="cls-2" d="M263.87,436.609h8.989v.758h-.584a1.78,1.78,0,0,0-1.241.391,1.343,1.343,0,0,0-.428,1.045,4.32,4.32,0,0,0,.438,1.7l4.442,10.377,4.463-10.768a5.042,5.042,0,0,0,.479-1.742.681.681,0,0,0-.167-.473,1.155,1.155,0,0,0-.584-.42,5.837,5.837,0,0,0-1.439-.113v-.758h6.236v.758a2.736,2.736,0,0,0-1.5.432,5.221,5.221,0,0,0-1.314,2.051l-6.779,16.119h-.855l-6.82-15.854a6.044,6.044,0,0,0-.876-1.588,3.441,3.441,0,0,0-1.063-.811,5.287,5.287,0,0,0-1.4-.35Z" transform="translate(-136.098 -342.813)"/>
    <path class="cls-2" d="M316.291,436.055v15.094a6.825,6.825,0,0,0,.26,2.35,1.813,1.813,0,0,0,.772.871,4.19,4.19,0,0,0,1.866.287v.738h-9.281v-.738a4.38,4.38,0,0,0,1.877-.268,1.832,1.832,0,0,0,.762-.881,6.538,6.538,0,0,0,.281-2.359V443.91a25.221,25.221,0,0,0-.187-3.959,1.6,1.6,0,0,0-.459-.912,1.314,1.314,0,0,0-.855-.256,4.236,4.236,0,0,0-1.418.307l-.291-.738,5.756-2.3Zm-1.731-9.822a2.045,2.045,0,0,1,1.491.605,1.975,1.975,0,0,1,.615,1.465,2.1,2.1,0,0,1-2.106,2.092,2.062,2.062,0,0,1-1.5-.615,2.052,2.052,0,0,1-.012-2.941A2.07,2.07,0,0,1,314.56,426.232Z" transform="translate(-136.098 -342.813)"/>
    <path class="cls-2" d="M361.287,448.258a10.124,10.124,0,0,1-3.024,5.711,7.333,7.333,0,0,1-4.985,2,7.415,7.415,0,0,1-5.672-2.687,10.443,10.443,0,0,1-2.42-7.26,9.91,9.91,0,0,1,2.68-7.2,8.639,8.639,0,0,1,6.435-2.77,7.134,7.134,0,0,1,4.63,1.467,4.041,4.041,0,0,1,1.814,3.045,1.653,1.653,0,0,1-.511,1.262,2,2,0,0,1-1.429.482,2.236,2.236,0,0,1-1.855-.779,3.189,3.189,0,0,1-.47-1.641,2.674,2.674,0,0,0-.845-1.846,3.045,3.045,0,0,0-2.023-.615,4.164,4.164,0,0,0-3.357,1.518,7.974,7.974,0,0,0-1.689,5.311,10.622,10.622,0,0,0,1.679,5.938,5.172,5.172,0,0,0,4.536,2.574,5.539,5.539,0,0,0,3.671-1.375,9.253,9.253,0,0,0,2.231-3.424Z" transform="translate(-136.098 -342.813)"/>
    <path class="cls-2" d="M390.724,443.684a9.541,9.541,0,0,0,2.064,6.563,6.337,6.337,0,0,0,4.9,2.379,5.383,5.383,0,0,0,3.265-1.014,7.5,7.5,0,0,0,2.325-3.477l.646.41a9.72,9.72,0,0,1-2.545,5.117,6.848,6.848,0,0,1-5.276,2.307,7.764,7.764,0,0,1-5.892-2.635,9.989,9.989,0,0,1-2.451-7.086q0-4.819,2.514-7.516a8.256,8.256,0,0,1,6.309-2.7,7.113,7.113,0,0,1,5.277,2.082,7.556,7.556,0,0,1,2.064,5.566Zm0-1.189h8.843a7.939,7.939,0,0,0-.437-2.543,4.09,4.09,0,0,0-1.554-1.8,3.967,3.967,0,0,0-2.159-.656,4.333,4.333,0,0,0-3.1,1.324A5.683,5.683,0,0,0,390.724,442.494Z" transform="translate(-136.098 -342.813)"/>
    <path class="cls-2" d="M442.311,436.055v6.4h-.687a8.273,8.273,0,0,0-2.034-4.1,4.62,4.62,0,0,0-3.159-1.086,3.525,3.525,0,0,0-2.357.758,2.19,2.19,0,0,0-.9,1.682,3.018,3.018,0,0,0,.667,1.969,7.414,7.414,0,0,0,2.628,1.785l3.045,1.455q4.235,2.03,4.234,5.354a5.027,5.027,0,0,1-1.971,4.133,6.911,6.911,0,0,1-4.411,1.568,15.415,15.415,0,0,1-4-.615,4.131,4.131,0,0,0-1.126-.205.829.829,0,0,0-.751.533H430.8v-6.707h.688a7.589,7.589,0,0,0,2.231,4.328,5.434,5.434,0,0,0,3.691,1.455,3.334,3.334,0,0,0,2.347-.83,2.616,2.616,0,0,0,.907-2,3.154,3.154,0,0,0-1.012-2.379,17.713,17.713,0,0,0-4.035-2.439,11.958,11.958,0,0,1-3.963-2.666,4.566,4.566,0,0,1-.938-2.953,5.166,5.166,0,0,1,1.616-3.877,5.773,5.773,0,0,1,4.182-1.559,9.99,9.99,0,0,1,2.732.473,6.523,6.523,0,0,0,1.418.307.84.84,0,0,0,.521-.143,1.979,1.979,0,0,0,.438-.637Z" transform="translate(-136.098 -342.813)"/>
  </g>
  <g>
    <path class="cls-3" d="M245.745,388.057c5.468,2.478,7.754,9.224,5.1,15.066s-9.23,8.574-14.7,6.095c-16.406-7.437-23.262-27.676-15.314-45.211,7.866-17.348,27.279-25.541,43.582-18.5-10.833-4.561-23.667.906-28.883,12.411-5.3,11.69-.727,25.182,10.209,30.142Z" transform="translate(-136.098 -342.813)"/>
    <path class="cls-2" d="M239.24,392.122c5.839,2.647,8.181,10.069,5.229,16.58s-10.077,9.642-15.915,7c-17.519-7.941-24.544-30.212-15.691-49.744C221.624,346.626,247,338,264.419,345.5c-11.574-4.856-29.828.641-35.639,13.456-5.9,13.022-1.218,27.864,10.46,33.162Z" transform="translate(-136.098 -342.813)"/>
  </g>
  <g>
    <path class="cls-3" d="M250.528,378.3a11.247,11.247,0,0,1,9.282-20.476c16.406,7.435,23.471,27.215,15.781,44.182-7.61,16.784-26.816,24.521-43.114,17.474,10.829,4.569,23.525-.594,28.572-11.725,5.125-11.31.416-24.5-10.52-29.454Z" transform="translate(-136.098 -342.813)"/>
    <path class="cls-2" d="M256.858,374.778c-5.839-2.647-8.258-9.9-5.4-16.2s9.9-9.262,15.743-6.615c17.52,7.942,24.776,29.7,16.211,48.6-8.478,18.7-31.879,27.039-49.289,19.526,11.568,4.869,27.921-.516,33.545-12.916,5.709-12.6.872-27.1-10.808-32.4Z" transform="translate(-136.098 -342.813)"/>
  </g>
</svg>
