<svg version="1.2" baseProfile="tiny-ps" xmlns="http://www.w3.org/2000/svg" viewBox="0 0 596 201" width="596" height="201">
	<title>Final-ai</title>
	<style>
		tspan { white-space:pre }
		.shp0 { fill: #ae2c98 } 
		.shp1 { fill: #58164a } 
	</style>
	<path id="Se vices " fill-rule="evenodd" class="shp0" d="M12.91 182.1C13.2 188.79 17.45 193.11 24 193.11C29.62 193.11 34.73 188.79 34.73 182.53C34.73 174.32 26.45 172.23 22.85 171.15C18.02 169.71 9.02 167.7 9.02 157.11C9.02 148.83 15.58 142.78 24 142.78C32.71 142.78 38.76 149.48 38.76 157.26L33.43 157.26C33.43 151.86 29.04 147.61 24 147.61C17.88 147.61 14.35 152.29 14.35 156.9C14.35 163.38 20.04 164.89 27.02 166.9C39.98 170.36 40.06 180.51 40.06 182.24L40.06 182.31C40.06 190.52 33.43 197.94 24 197.94C17.09 197.94 7.8 193.83 7.58 182.1L12.91 182.1ZM93.55 179.14C93.91 186.85 101.11 193.4 108.82 193.4C116.02 193.26 121.13 189.01 122.93 184.11L128.26 184.11C125.52 191.96 117.96 197.94 108.89 197.94C97.87 197.94 88.37 189.01 88.37 177.34C88.37 166.18 97.37 156.82 108.82 156.61C117.46 156.68 123.58 161.79 126.38 166.69C128.69 170.43 129.48 174.25 129.48 177.7C129.48 178.21 129.41 178.64 129.41 179.14L93.55 179.14ZM124.3 174.61C122.71 165.32 115.15 161.14 108.89 161.14C102.7 161.14 94.99 165.32 93.55 174.61L124.3 174.61ZM240.43 157.62L245.83 157.62L259.73 190.74L273.84 157.62L279.24 157.62L262.61 197L257.06 197L240.43 157.62ZM328.27 157.62L333.31 157.62L333.31 197L328.27 197L328.27 157.62ZM328.27 143.72L333.31 143.72L333.31 152.79L328.27 152.79L328.27 143.72ZM425.47 185.41C422.95 190.3 417.7 197.94 405.89 197.94C393.58 197.94 384.72 188.36 384.72 177.34C384.72 165.97 394.15 156.61 405.89 156.61C412.8 156.61 421.66 160.06 425.47 169.5L419.93 169.5C416.76 163.52 411 161.14 406.03 161.14C398.33 161.14 389.76 166.9 389.76 177.2C389.76 186.06 396.6 193.4 406.03 193.4C414.24 193.4 418.34 188.43 419.93 185.41L425.47 185.41ZM480.05 179.14C480.41 186.85 487.61 193.4 495.31 193.4C502.51 193.26 507.62 189.01 509.42 184.11L514.75 184.11C512.02 191.96 504.46 197.94 495.38 197.94C484.37 197.94 474.86 189.01 474.86 177.34C474.86 166.18 483.86 156.82 495.31 156.61C503.95 156.68 510.07 161.79 512.88 166.69C515.18 170.43 515.98 174.25 515.98 177.7C515.98 178.21 515.9 178.64 515.9 179.14L480.05 179.14ZM510.79 174.61C509.21 165.32 501.65 161.14 495.38 161.14C489.19 161.14 481.49 165.32 480.05 174.61L510.79 174.61ZM569.47 185.34C569.62 192.82 574.73 193.4 576.53 193.4C581.28 193.4 583.87 190.59 583.87 186.34C583.87 180.94 578.98 179.72 576.02 178.5C571.99 177.13 565.58 174.97 565.58 167.55C565.58 162.01 569.54 156.61 576.82 156.61C582.65 156.61 587.54 161.07 587.54 167.19L587.54 167.34L582.5 167.34C582.14 162.51 578.83 161.14 576.6 161.14C572.57 161.14 570.62 164.38 570.62 167.05C570.62 171.22 574.8 172.66 577.68 173.6C582.29 175.11 588.91 177.63 588.91 185.77L588.91 185.91C588.91 192.61 584.81 197.94 576.53 197.94C571.13 197.94 564.43 194.34 564.43 185.77L564.43 185.34L569.47 185.34Z" />
	<path id="R" class="shp0" d="M173 157L173 198L178 198L178 161L190 161L190 157L173 157Z" />
	<g id="Layer 1">
		<g id="&lt;Group&gt;">
			<path id="JP    Retail " fill="#43454b" aria-label="JP    Retail"  d="M2.67 112L20.93 112C48.51 113.02 58.67 104.73 57.94 81.99L57.94 43.68L40.77 43.68L40.77 81.99C40.77 91.31 39.68 94.89 36.41 97.35C33.75 99.3 29.88 99.81 19.12 99.81L2.67 99.81ZM90.72 88.13L118.3 88.13C127.49 88.13 131.85 87.11 136.57 83.73C142.13 79.73 145.52 73.08 145.52 65.91C145.52 59.86 142.98 54.23 138.26 49.93C132.94 44.91 127.98 43.68 113.83 43.68L73.55 43.68L73.55 112L90.72 112ZM90.72 75.94L90.72 55.87L114.43 55.87C117.21 55.87 119.39 56.07 120.72 56.48C124.47 57.61 126.65 60.89 126.65 65.39C126.65 69.18 125.32 72.46 123.14 74C121.33 75.43 118.66 75.94 114.07 75.94ZM294.66 86.09L308.45 86.09C323.69 86.09 328.77 89.88 330.34 102.27C330.46 103.6 330.82 106.47 331.06 108.31C331.31 109.85 331.43 110.46 332.03 112L351.26 112C350.18 109.44 349.93 108.01 349.33 101.65C348.72 91 344.13 84.86 334.69 82.71C345.1 79.63 350.05 73.18 350.05 62.73C350.05 56.48 346.79 50.95 341.1 47.67C336.27 44.81 329.13 43.68 316.91 43.68L277.48 43.68L277.48 112L294.66 112ZM294.66 73.9L294.66 55.87L318.73 55.87C321.63 55.87 323.81 56.07 325.14 56.38C328.89 57.51 331.06 60.38 331.06 64.47C331.06 71.13 327.56 73.9 318.73 73.9ZM411.02 81.68L376.91 81.68C377.63 74.82 380.66 72.77 389.49 72.77L411.02 72.77L411.02 62.12L388.28 62.12C380.29 62.12 374.97 63.14 370.5 65.7C363.48 69.7 359.01 77.69 359.01 86.39C359.01 95.61 362.63 102.78 369.65 107.29C374.97 110.77 380.17 112 389.49 112L411.02 112L411.02 101.35L391.18 101.35C386.1 101.35 383.56 100.94 381.26 99.61C378.36 97.97 377.27 96.12 376.91 92.33L411.02 92.33ZM429.04 62.12L418.76 62.12L418.76 72.77L429.04 72.77L429.04 93.26C429.04 101.35 430.25 105.03 434.24 108.21C437.39 110.87 441.74 112 448.51 112L460.25 112L460.25 101.35L453.84 101.35C450.45 101.35 447.91 100.53 446.58 98.89C445.49 97.56 445.25 96.02 445.25 90.9L445.25 72.77L460.25 72.77L460.25 62.12L445.25 62.12L445.25 43.68L429.04 43.68ZM492.06 81.68C486.13 81.68 481.41 82.09 478.75 82.81C472.34 84.55 467.99 90.28 467.99 97.25C467.99 102.27 470.41 106.67 474.76 109.34C478.39 111.59 481.41 112 493.99 112L528.1 112L528.1 83.93C528.1 78.61 527.86 76.66 526.77 73.79C524.84 68.67 520.6 64.78 515.4 63.35C511.53 62.32 509.35 62.12 499.56 62.12L472.22 62.12L472.22 72.77L499.56 72.77C509.35 72.77 511.89 74.61 511.89 81.68ZM511.89 92.33L511.89 101.35L493.15 101.35C486.86 101.35 484.44 100.12 484.44 96.94C484.44 94.89 485.77 93.15 487.95 92.64C489.28 92.33 489.28 92.33 493.15 92.33ZM543.22 62.12L543.22 112L559.43 112L559.43 62.12ZM543.22 57L559.43 57L559.43 43.68L543.22 43.68ZM591.6 112L591.6 43.68L575.4 43.68L575.4 112Z" />
		</g>
		<g id="&lt;Group&gt;">
			<g id="&lt;Group&gt;">
				<path id="&lt;Path&gt;" class="shp1" d="M205.91 78.71C214.53 82.8 218.14 93.94 213.96 103.59C209.78 113.24 199.4 117.75 190.77 113.65C164.89 101.37 154.07 67.95 166.61 38.99C179.02 10.34 209.65 -3.19 235.37 8.43C218.28 0.9 198.03 9.93 189.8 28.93C181.44 48.23 188.65 70.52 205.91 78.71Z" />
			</g>
			<g id="&lt;Group&gt;">
				<path id="&lt;Path&gt;" class="shp0" d="M195.64 85.42C204.86 89.79 208.55 102.05 203.89 112.8C199.24 123.55 188 128.72 178.79 124.35C151.15 111.24 140.06 74.46 154.03 42.2C167.85 10.29 207.89 -3.96 235.37 8.43C217.11 0.41 188.31 9.49 179.14 30.65C169.83 52.16 177.22 76.67 195.64 85.42Z" />
			</g>
		</g>
		<g id="&lt;Group&gt;">
			<g id="&lt;Group&gt;">
				<path id="&lt;Path&gt;" class="shp1" d="M213.45 62.6C204.83 58.51 201.11 47.62 205.16 38.28C209.2 28.94 219.47 24.69 228.1 28.78C253.98 41.06 265.12 73.73 252.99 101.75C240.99 129.46 210.69 142.24 184.97 130.6C202.06 138.15 222.09 129.62 230.05 111.24C238.14 92.56 230.71 70.79 213.45 62.6Z" />
			</g>
			<g id="&lt;Group&gt;">
				<path id="&lt;Path&gt;" class="shp0" d="M223.44 56.78C214.23 52.4 210.41 40.43 214.92 30.03C219.42 19.62 230.54 14.73 239.75 19.1C267.39 32.22 278.84 68.15 265.33 99.36C251.95 130.24 215.03 144.01 187.57 131.61C205.82 139.65 231.62 130.76 240.49 110.28C249.5 89.47 241.86 65.52 223.44 56.78Z" />
			</g>
		</g>
	</g>
</svg>