<svg version="1.2" baseProfile="tiny-ps" xmlns="http://www.w3.org/2000/svg" viewBox="0 0 115 39" width="115" height="39">
	<title>Final-ai</title>
	<style>
		tspan { white-space:pre }
		.shp0 { fill: #ae2c98 } 
		.shp1 { fill: #58164a } 
	</style>
	<path id="Se vices " fill-rule="evenodd" class="shp0" d="M2.49 35.33C2.55 36.63 3.37 37.47 4.63 37.47C5.71 37.47 6.7 36.63 6.7 35.42C6.7 33.82 5.1 33.42 4.41 33.21C3.48 32.93 1.74 32.54 1.74 30.48C1.74 28.88 3.01 27.7 4.63 27.7C6.31 27.7 7.48 29 7.48 30.51L6.45 30.51C6.45 29.46 5.6 28.64 4.63 28.64C3.45 28.64 2.77 29.55 2.77 30.44C2.77 31.7 3.87 31.99 5.21 32.38C7.72 33.05 7.73 35.02 7.73 35.36L7.73 35.37C7.73 36.97 6.45 38.41 4.63 38.41C3.3 38.41 1.51 37.61 1.46 35.33L2.49 35.33ZM18.05 34.76C18.12 36.25 19.51 37.53 21 37.53C22.39 37.5 23.37 36.67 23.72 35.72L24.75 35.72C24.22 37.25 22.76 38.41 21.01 38.41C18.88 38.41 17.05 36.67 17.05 34.41C17.05 32.24 18.79 30.43 21 30.39C22.66 30.4 23.84 31.39 24.39 32.34C24.83 33.07 24.98 33.81 24.98 34.48C24.98 34.58 24.97 34.66 24.97 34.76L18.05 34.76ZM23.98 33.88C23.68 32.08 22.22 31.27 21.01 31.27C19.82 31.27 18.33 32.08 18.05 33.88L23.98 33.88ZM46.39 30.58L47.43 30.58L50.12 37.01L52.84 30.58L53.88 30.58L50.67 38.22L49.6 38.22L46.39 30.58ZM63.34 30.58L64.31 30.58L64.31 38.22L63.34 38.22L63.34 30.58ZM63.34 27.89L64.31 27.89L64.31 29.65L63.34 29.65L63.34 27.89ZM82.1 35.97C81.61 36.92 80.6 38.41 78.32 38.41C75.94 38.41 74.23 36.55 74.23 34.41C74.23 32.2 76.05 30.39 78.32 30.39C79.65 30.39 81.36 31.06 82.1 32.89L81.03 32.89C80.42 31.73 79.3 31.27 78.35 31.27C76.86 31.27 75.21 32.38 75.21 34.38C75.21 36.1 76.53 37.53 78.35 37.53C79.93 37.53 80.72 36.56 81.03 35.97L82.1 35.97ZM92.63 34.76C92.7 36.25 94.09 37.53 95.57 37.53C96.96 37.5 97.95 36.67 98.29 35.72L99.32 35.72C98.8 37.25 97.34 38.41 95.59 38.41C93.46 38.41 91.63 36.67 91.63 34.41C91.63 32.24 93.36 30.43 95.57 30.39C97.24 30.4 98.42 31.39 98.96 32.34C99.41 33.07 99.56 33.81 99.56 34.48C99.56 34.58 99.55 34.66 99.55 34.76L92.63 34.76ZM98.56 33.88C98.25 32.08 96.79 31.27 95.59 31.27C94.39 31.27 92.9 32.08 92.63 33.88L98.56 33.88ZM109.88 35.96C109.91 37.41 110.9 37.53 111.24 37.53C112.16 37.53 112.66 36.98 112.66 36.16C112.66 35.11 111.72 34.87 111.15 34.63C110.37 34.37 109.13 33.95 109.13 32.51C109.13 31.43 109.9 30.39 111.3 30.39C112.42 30.39 113.37 31.25 113.37 32.44L113.37 32.47L112.4 32.47C112.33 31.53 111.69 31.27 111.26 31.27C110.48 31.27 110.1 31.9 110.1 32.41C110.1 33.22 110.91 33.5 111.47 33.68C112.35 33.98 113.63 34.47 113.63 36.04L113.63 36.07C113.63 37.37 112.84 38.41 111.24 38.41C110.2 38.41 108.91 37.71 108.91 36.04L108.91 35.96L109.88 35.96Z" />
	<path id="R" class="shp0" d="M33.38 31.39L33.38 39.35L34.35 39.35L34.35 32.17L36.66 32.17L36.66 31.39L33.38 31.39Z" />
	<g id="Layer 1">
		<g id="&lt;Group&gt;">
			<path id="JP    Retail " fill="#43454b" aria-label="JP    Retail"  d="M0.51 22L4.04 22C9.36 22.2 11.32 20.59 11.18 16.18L11.18 8.74L7.87 8.74L7.87 16.18C7.87 17.99 7.66 18.68 7.03 19.16C6.51 19.54 5.77 19.63 3.69 19.63L0.51 19.63ZM17.51 17.37L22.83 17.37C24.6 17.37 25.44 17.17 26.35 16.51C27.42 15.74 28.08 14.45 28.08 13.06C28.08 11.88 27.59 10.79 26.68 9.96C25.65 8.98 24.69 8.74 21.96 8.74L14.19 8.74L14.19 22L17.51 22ZM17.51 15L17.51 11.11L22.08 11.11C22.62 11.11 23.04 11.15 23.29 11.23C24.02 11.45 24.44 12.08 24.44 12.96C24.44 13.69 24.18 14.33 23.76 14.63C23.41 14.9 22.9 15 22.01 15ZM56.85 16.97L59.52 16.97C62.46 16.97 63.44 17.71 63.74 20.11C63.76 20.37 63.83 20.93 63.88 21.28C63.93 21.58 63.95 21.7 64.07 22L67.78 22C67.57 21.5 67.52 21.22 67.4 19.99C67.29 17.93 66.4 16.73 64.58 16.32C66.59 15.72 67.54 14.47 67.54 12.44C67.54 11.23 66.91 10.15 65.82 9.52C64.88 8.96 63.51 8.74 61.15 8.74L53.54 8.74L53.54 22L56.85 22ZM56.85 14.61L56.85 11.11L61.5 11.11C62.06 11.11 62.48 11.15 62.74 11.21C63.46 11.43 63.88 11.98 63.88 12.78C63.88 14.07 63.2 14.61 61.5 14.61ZM79.31 16.12L72.73 16.12C72.87 14.79 73.45 14.39 75.15 14.39L79.31 14.39L79.31 12.32L74.92 12.32C73.38 12.32 72.35 12.52 71.49 13.02C70.13 13.79 69.27 15.34 69.27 17.03C69.27 18.82 69.97 20.21 71.33 21.09C72.35 21.76 73.36 22 75.15 22L79.31 22L79.31 19.93L75.48 19.93C74.5 19.93 74.01 19.85 73.57 19.6C73.01 19.28 72.8 18.92 72.73 18.18L79.31 18.18ZM82.78 12.32L80.8 12.32L80.8 14.39L82.78 14.39L82.78 18.36C82.78 19.93 83.02 20.65 83.79 21.26C84.39 21.78 85.24 22 86.54 22L88.81 22L88.81 19.93L87.57 19.93C86.92 19.93 86.43 19.77 86.17 19.46C85.96 19.2 85.91 18.9 85.91 17.91L85.91 14.39L88.81 14.39L88.81 12.32L85.91 12.32L85.91 8.74L82.78 8.74ZM94.94 16.12C93.8 16.12 92.89 16.2 92.38 16.34C91.14 16.67 90.3 17.79 90.3 19.14C90.3 20.11 90.77 20.97 91.61 21.48C92.31 21.92 92.89 22 95.32 22L101.9 22L101.9 16.55C101.9 15.52 101.85 15.14 101.64 14.59C101.27 13.59 100.45 12.84 99.45 12.56C98.7 12.36 98.28 12.32 96.39 12.32L91.12 12.32L91.12 14.39L96.39 14.39C98.28 14.39 98.77 14.75 98.77 16.12ZM98.77 18.18L98.77 19.93L95.15 19.93C93.94 19.93 93.47 19.69 93.47 19.08C93.47 18.68 93.73 18.34 94.15 18.24C94.41 18.18 94.41 18.18 95.15 18.18ZM104.82 12.32L104.82 22L107.94 22L107.94 12.32ZM104.82 11.33L107.94 11.33L107.94 8.74L104.82 8.74ZM114.15 22L114.15 8.74L111.02 8.74L111.02 22Z" />
		</g>
		<g id="&lt;Group&gt;">
			<g id="&lt;Group&gt;">
				<path id="&lt;Path&gt;" class="shp1" d="M39.73 15.27C41.39 16.07 42.09 18.23 41.28 20.1C40.48 21.97 38.47 22.85 36.81 22.05C31.82 19.67 29.73 13.18 32.15 7.57C34.54 2.01 40.45 -0.62 45.41 1.64C42.12 0.17 38.21 1.93 36.62 5.61C35.01 9.36 36.4 13.68 39.73 15.27Z" />
			</g>
			<g id="&lt;Group&gt;">
				<path id="&lt;Path&gt;" class="shp0" d="M37.75 16.57C39.53 17.42 40.24 19.8 39.34 21.89C38.44 23.97 36.27 24.98 34.5 24.13C29.16 21.58 27.03 14.45 29.72 8.19C32.39 2 40.11 -0.77 45.41 1.64C41.89 0.08 36.33 1.84 34.57 5.95C32.77 10.12 34.2 14.88 37.75 16.57Z" />
			</g>
		</g>
		<g id="&lt;Group&gt;">
			<g id="&lt;Group&gt;">
				<path id="&lt;Path&gt;" class="shp1" d="M41.19 12.15C39.52 11.35 38.8 9.24 39.59 7.43C40.37 5.62 42.35 4.79 44.01 5.58C49.01 7.97 51.16 14.31 48.82 19.74C46.5 25.12 40.65 27.6 35.69 25.34C38.99 26.8 42.85 25.15 44.39 21.58C45.95 17.96 44.52 13.74 41.19 12.15Z" />
			</g>
			<g id="&lt;Group&gt;">
				<path id="&lt;Path&gt;" class="shp0" d="M43.11 11.02C41.34 10.17 40.6 7.84 41.47 5.83C42.34 3.81 44.48 2.86 46.26 3.71C51.59 6.25 53.8 13.22 51.2 19.28C48.61 25.27 41.49 27.94 36.19 25.54C39.71 27.1 44.69 25.37 46.4 21.4C48.14 17.36 46.67 12.71 43.11 11.02Z" />
			</g>
		</g>
	</g>
</svg>